<svg xmlns="http://www.w3.org/2000/svg" viewBox="0 0 500 500">
  <path fill="#e78c2a" d="M250 150c-55.2 0-100 44.8-100 100s44.8 100 100 100 100-44.8 100-100-44.8-100-100-100zm0 0"/>
  <path fill="#e78c2a" d="M363 137c-30.4 0-55 24.6-55 55s24.6 55 55 55 55-24.6 55-55-24.6-55-55-55zm0 0"/>
  <path fill="#e78c2a" d="M137 363c-30.4 0-55 24.6-55 55s24.6 55 55 55 55-24.6 55-55-24.6-55-55-55zm0 0"/>
  <path fill="#e78c2a" d="M363 27c-30.4 0-55 24.6-55 55s24.6 55 55 55 55-24.6 55-55-24.6-55-55-55zm0 0"/>
  <path fill="#e78c2a" d="M250 150v-95M250 445v-95M137 363L75 425M425 75l-62 62M363 137l-63 63M200 350l-63 63"/>
  <path stroke="#e78c2a" stroke-width="20" fill="none" d="M250 55v95M250 350v95M137 363L75 425M425 75l-62 62M363 137l-63 63M200 350l-63 63"/>
  <circle fill="#ffffff" cx="363" cy="82" r="25"/>
  <circle fill="#ffffff" cx="363" cy="192" r="25"/>
  <circle fill="#ffffff" cx="137" cy="418" r="25"/>
  <path fill="#ffffff" d="M225 82h50v50h-50z" transform="rotate(45 250 107)"/>
  <circle fill="#ffffff" cx="475" cy="192" r="10"/>
</svg>